<svg aria-hidden="true" style="position: absolute; width: 0; height: 0; overflow: hidden;" version="1.1" xmlns="http://www.w3.org/2000/svg" xmlns:xlink="http://www.w3.org/1999/xlink">
<defs>
<symbol id="icon-pencil" viewBox="0 0 32 32">
<path stroke-linejoin="round" stroke-linecap="round" stroke-miterlimit="4" stroke-width="2.7733" d="M1.422 30.578l7.892-3.036c0.505-0.194 0.757-0.291 0.993-0.418 0.21-0.113 0.41-0.243 0.598-0.389 0.212-0.164 0.403-0.355 0.785-0.738l16.042-16.042c1.571-1.571 1.571-4.118 0-5.689s-4.118-1.571-5.689 0l-16.042 16.042c-0.382 0.382-0.574 0.574-0.738 0.785-0.146 0.188-0.276 0.388-0.388 0.598-0.127 0.236-0.224 0.489-0.418 0.994l-3.035 7.892zM1.422 30.578l2.927-7.61c0.209-0.545 0.314-0.817 0.494-0.942 0.157-0.109 0.351-0.15 0.539-0.114 0.215 0.041 0.421 0.247 0.834 0.66l3.213 3.213c0.413 0.413 0.619 0.619 0.66 0.834 0.036 0.188-0.005 0.382-0.114 0.539-0.125 0.18-0.397 0.284-0.942 0.494l-7.61 2.927z"></path>
</symbol>
<symbol id="icon-trash" viewBox="0 0 32 32">
<path stroke-linejoin="round" stroke-linecap="round" stroke-miterlimit="4" stroke-width="2.6" d="M12 4h8"></path>
<path stroke-linejoin="round" stroke-linecap="round" stroke-miterlimit="4" stroke-width="2.6" d="M4 8h24"></path>
<path stroke-linejoin="round" stroke-linecap="round" stroke-miterlimit="4" stroke-width="2.6" d="M6.667 8l0.801 12.018c0.149 2.231 0.223 3.347 0.588 4.243 0.662 1.627 2.004 2.883 3.672 3.435 0.919 0.304 2.037 0.304 4.273 0.304v0c2.236 0 3.354 0 4.273-0.304 1.668-0.552 3.010-1.808 3.672-3.435 0.365-0.896 0.439-2.012 0.588-4.243l0.801-12.018"></path>
</symbol>
</defs>
</svg>
